<svg width="384" height="295" viewBox="0 0 384 295" fill="none" xmlns="http://www.w3.org/2000/svg">
<path d="M88.4194 204.157L118.15 157.412L51.5674 115.081L17.1824 169.144L72.2546 204.157H88.4194Z" fill="#F0F0F0"/>
<path d="M130.55 218.74H56.9066V203.918H130.55V218.74ZM57.863 217.784H129.594V204.874H57.863V217.784Z" fill="#3F3D56"/>
<path d="M121.465 216.11C124.106 216.11 126.247 213.97 126.247 211.329C126.247 208.688 124.106 206.548 121.465 206.548C118.823 206.548 116.682 208.688 116.682 211.329C116.682 213.97 118.823 216.11 121.465 216.11Z" fill="#4464AD"/>
<path d="M108.075 216.11C110.716 216.11 112.857 213.97 112.857 211.329C112.857 208.688 110.716 206.548 108.075 206.548C105.434 206.548 103.293 208.688 103.293 211.329C103.293 213.97 105.434 216.11 108.075 216.11Z" fill="#4464AD"/>
<path d="M94.6849 216.11C97.326 216.11 99.467 213.97 99.467 211.329C99.467 208.688 97.326 206.548 94.6849 206.548C92.0438 206.548 89.9028 208.688 89.9028 211.329C89.9028 213.97 92.0438 216.11 94.6849 216.11Z" fill="#4464AD"/>
<path d="M81.2951 216.11C83.9362 216.11 86.0772 213.97 86.0772 211.329C86.0772 208.688 83.9362 206.548 81.2951 206.548C78.6541 206.548 76.5131 208.688 76.5131 211.329C76.5131 213.97 78.6541 216.11 81.2951 216.11Z" fill="#4464AD"/>
<path d="M67.9054 216.11C70.5464 216.11 72.6874 213.97 72.6874 211.329C72.6874 208.688 70.5464 206.548 67.9054 206.548C65.2643 206.548 63.1233 208.688 63.1233 211.329C63.1233 213.97 65.2643 216.11 67.9054 216.11Z" fill="#4464AD"/>
<path d="M218.062 54.0276V17.6904H236.234V0H147.288V88.9303H223.323V80.2354C223.323 78.6146 223.642 77.0096 224.262 75.5122C224.883 74.0147 225.792 72.6541 226.938 71.508C228.085 70.3619 229.445 69.4528 230.943 68.8325C232.441 68.2123 234.046 67.893 235.667 67.893H236.234V54.0276H218.062Z" fill="#F0F0F0"/>
<path d="M316.573 229.498H257.275V241.929H316.573V229.498Z" fill="#4464AD"/>
<path d="M329.484 168.298H242.451V179.773H329.484V168.298Z" fill="#F0F0F0"/>
<path d="M372.045 294.044H0V295H372.045V294.044Z" fill="#3F3D56"/>
<path d="M344.398 295H235.667C232.268 294.996 229.008 293.644 226.604 291.241C224.2 288.837 222.848 285.578 222.844 282.179V80.2354C222.848 76.8364 224.2 73.5777 226.604 71.1742C229.008 68.7708 232.268 67.4188 235.667 67.4149H344.398C347.797 67.4188 351.057 68.7708 353.46 71.1742C355.864 73.5777 357.217 76.8364 357.22 80.2354V282.179C357.217 285.578 355.864 288.837 353.46 291.241C351.056 293.644 347.797 294.996 344.398 295V295ZM235.667 68.3712C232.521 68.3747 229.505 69.6259 227.28 71.8501C225.056 74.0743 223.804 77.0899 223.801 80.2354V282.179C223.804 285.325 225.056 288.341 227.28 290.565C229.505 292.789 232.521 294.04 235.667 294.044H344.398C347.544 294.04 350.56 292.789 352.784 290.565C355.009 288.341 356.26 285.325 356.264 282.179V80.2354C356.26 77.0899 355.009 74.0743 352.784 71.8501C350.56 69.6259 347.544 68.3747 344.398 68.3712H235.667Z" fill="#3F3D56"/>
<path d="M277.121 76.9773C276.553 76.9773 275.999 76.8091 275.527 76.4938C275.055 76.1786 274.687 75.7306 274.47 75.2064C274.253 74.6822 274.196 74.1054 274.307 73.5489C274.417 72.9925 274.691 72.4813 275.092 72.0801C275.493 71.6789 276.004 71.4057 276.561 71.295C277.118 71.1843 277.695 71.2411 278.219 71.4582C278.743 71.6754 279.191 72.043 279.507 72.5148C279.822 72.9866 279.99 73.5412 279.99 74.1086C279.989 74.8692 279.687 75.5983 279.149 76.1362C278.611 76.674 277.882 76.9765 277.121 76.9773V76.9773ZM277.121 72.1961C276.742 72.1961 276.373 72.3083 276.058 72.5184C275.744 72.7286 275.498 73.0273 275.354 73.3767C275.209 73.7262 275.171 74.1107 275.245 74.4817C275.319 74.8527 275.501 75.1934 275.768 75.4609C276.036 75.7284 276.377 75.9105 276.748 75.9843C277.119 76.0581 277.503 76.0202 277.853 75.8755C278.202 75.7307 278.501 75.4856 278.711 75.1711C278.921 74.8566 279.034 74.4868 279.034 74.1086C279.033 73.6015 278.831 73.1154 278.473 72.7569C278.114 72.3983 277.628 72.1966 277.121 72.1961V72.1961Z" fill="#3F3D56"/>
<path d="M305.335 73.6305H284.294V74.5867H305.335V73.6305Z" fill="#3F3D56"/>
<path d="M348.613 81.2804V119.53C338.467 119.53 328.736 115.5 321.562 108.326C314.387 101.153 310.357 91.4247 310.356 81.2804H348.613Z" fill="#4464AD"/>
<path d="M349.091 282.091H230.974V80.8022H349.091V282.091ZM231.93 281.135H348.135V81.7585H231.93V281.135Z" fill="#3F3D56"/>
<path opacity="0.1" d="M320.877 117.139C328.008 117.139 333.788 111.36 333.788 104.23C333.788 97.1006 328.008 91.3209 320.877 91.3209C313.746 91.3209 307.965 97.1006 307.965 104.23C307.965 111.36 313.746 117.139 320.877 117.139Z" fill="black"/>
<path d="M318.964 118.574C326.095 118.574 331.875 112.794 331.875 105.664C331.875 98.5349 326.095 92.7552 318.964 92.7552C311.833 92.7552 306.052 98.5349 306.052 105.664C306.052 112.794 311.833 118.574 318.964 118.574Z" fill="#4464AD"/>
<path d="M254.406 88.9303H236.234V95.624H254.406V88.9303Z" fill="#3F3D56"/>
<path d="M264.448 152.52H246.276V159.214H264.448V152.52Z" fill="#3F3D56"/>
<path d="M334.267 177.382H246.276V164.951H334.267V177.382ZM247.233 176.426H333.31V165.908H247.233V176.426Z" fill="#3F3D56"/>
<path d="M329.484 204.635H242.451V216.11H329.484V204.635Z" fill="#F0F0F0"/>
<path d="M264.448 188.857H246.276V195.551H264.448V188.857Z" fill="#3F3D56"/>
<path d="M334.267 213.72H246.276V201.289H334.267V213.72ZM247.233 212.763H333.31V202.245H247.233V212.763Z" fill="#3F3D56"/>
<path d="M320.398 239.06H260.144V225.673H320.398V239.06ZM261.101 238.104H319.442V226.629H261.101V238.104Z" fill="#3F3D56"/>
<path d="M331.875 172.601C331.875 173.586 331.571 174.546 331.005 175.351C330.439 176.156 329.638 176.767 328.712 177.1C327.785 177.433 326.779 177.473 325.829 177.213C324.88 176.952 324.034 176.406 323.406 175.647L323.402 175.642C322.945 175.088 322.618 174.437 322.447 173.74C322.276 173.042 322.264 172.314 322.413 171.611C322.562 170.908 322.867 170.248 323.306 169.679C323.746 169.111 324.307 168.648 324.95 168.326C325.592 168.005 326.299 167.832 327.018 167.821C327.736 167.81 328.448 167.961 329.1 168.263C329.752 168.564 330.328 169.009 330.785 169.564C331.241 170.119 331.567 170.77 331.737 171.468C331.737 171.469 331.737 171.469 331.737 171.47C331.737 171.471 331.738 171.471 331.738 171.472C331.739 171.472 331.739 171.472 331.74 171.473C331.74 171.473 331.741 171.473 331.742 171.473C331.83 171.843 331.875 172.221 331.875 172.601V172.601Z" fill="#4464AD"/>
<path opacity="0.1" d="M331.875 172.601C331.875 173.586 331.571 174.546 331.005 175.351C330.439 176.156 329.638 176.767 328.712 177.1C327.785 177.433 326.779 177.473 325.829 177.213C324.88 176.952 324.034 176.406 323.406 175.647L323.402 175.642C323.313 175.273 323.268 174.894 323.268 174.514C323.268 173.53 323.572 172.569 324.138 171.764C324.704 170.959 325.505 170.348 326.432 170.015C327.358 169.682 328.365 169.642 329.314 169.903C330.264 170.163 331.11 170.709 331.737 171.468C331.737 171.469 331.737 171.469 331.737 171.47C331.737 171.471 331.738 171.471 331.738 171.472C331.739 171.472 331.739 171.472 331.74 171.473C331.74 171.473 331.741 171.473 331.742 171.473C331.83 171.843 331.875 172.221 331.875 172.601V172.601Z" fill="black"/>
<path d="M329.006 180.251C331.647 180.251 333.788 178.111 333.788 175.47C333.788 172.829 331.647 170.689 329.006 170.689C326.365 170.689 324.224 172.829 324.224 175.47C324.224 178.111 326.365 180.251 329.006 180.251Z" fill="#4464AD"/>
<path d="M331.875 208.938C331.875 209.923 331.571 210.883 331.005 211.688C330.439 212.493 329.638 213.104 328.712 213.437C327.785 213.771 326.779 213.81 325.829 213.55C324.88 213.29 324.034 212.743 323.406 211.984L323.402 211.979C322.945 211.425 322.618 210.775 322.447 210.077C322.276 209.379 322.264 208.651 322.413 207.948C322.562 207.246 322.867 206.585 323.306 206.016C323.746 205.448 324.307 204.985 324.95 204.663C325.592 204.342 326.299 204.169 327.018 204.158C327.736 204.147 328.448 204.298 329.1 204.6C329.752 204.902 330.328 205.347 330.785 205.902C331.241 206.456 331.567 207.107 331.737 207.805C331.737 207.806 331.737 207.807 331.737 207.807C331.737 207.808 331.738 207.808 331.738 207.809C331.739 207.809 331.739 207.809 331.74 207.81C331.74 207.81 331.741 207.81 331.742 207.81C331.83 208.18 331.875 208.558 331.875 208.938V208.938Z" fill="#4464AD"/>
<path opacity="0.1" d="M331.875 208.938C331.875 209.923 331.571 210.883 331.005 211.688C330.439 212.493 329.638 213.104 328.712 213.437C327.785 213.771 326.779 213.81 325.829 213.55C324.88 213.29 324.034 212.743 323.406 211.984L323.402 211.979C323.313 211.61 323.268 211.231 323.268 210.851C323.268 209.867 323.572 208.906 324.138 208.101C324.704 207.296 325.505 206.685 326.432 206.352C327.358 206.019 328.365 205.98 329.314 206.24C330.264 206.5 331.11 207.047 331.737 207.805C331.737 207.806 331.737 207.807 331.737 207.807C331.737 207.808 331.738 207.808 331.738 207.809C331.739 207.809 331.739 207.809 331.74 207.81C331.74 207.81 331.741 207.81 331.742 207.81C331.83 208.18 331.875 208.558 331.875 208.938V208.938Z" fill="black"/>
<path d="M329.006 216.588C331.647 216.588 333.788 214.448 333.788 211.807C333.788 209.167 331.647 207.026 329.006 207.026C326.365 207.026 324.224 209.167 324.224 211.807C324.224 214.448 326.365 216.588 329.006 216.588Z" fill="#4464AD"/>
<path d="M248.668 22.9498H223.801V47.812H248.668V22.9498Z" fill="#F0F0F0"/>
<path d="M320.877 41.1183C319.742 41.1183 318.632 40.7818 317.689 40.1514C316.745 39.5209 316.009 38.6249 315.575 37.5765C315.141 36.5281 315.027 35.3745 315.248 34.2616C315.47 33.1486 316.016 32.1263 316.819 31.3239C317.621 30.5215 318.644 29.9751 319.757 29.7537C320.87 29.5323 322.024 29.6459 323.073 30.0802C324.121 30.5144 325.018 31.2498 325.648 32.1933C326.279 33.1368 326.615 34.2461 326.615 35.3809C326.613 36.902 326.008 38.3604 324.933 39.436C323.857 40.5116 322.398 41.1166 320.877 41.1183V41.1183ZM320.877 30.5997C319.931 30.5997 319.006 30.8801 318.22 31.4055C317.433 31.9308 316.821 32.6775 316.459 33.5512C316.097 34.4248 316.002 35.3862 316.186 36.3136C316.371 37.2411 316.826 38.093 317.495 38.7617C318.164 39.4304 319.016 39.8857 319.944 40.0702C320.871 40.2547 321.833 40.16 322.707 39.7981C323.581 39.4363 324.327 38.8234 324.853 38.0372C325.378 37.2509 325.659 36.3265 325.659 35.3809C325.657 34.1133 325.153 32.898 324.257 32.0017C323.36 31.1053 322.145 30.6011 320.877 30.5997V30.5997Z" fill="#3F3D56"/>
<path d="M194.63 120.964H182.197V108.533H194.63V120.964ZM183.153 120.008H193.674V109.489H183.153V120.008Z" fill="#3F3D56"/>
<path d="M384 213.72H371.567V201.289H384V213.72ZM372.523 212.763H383.044V202.245H372.523V212.763Z" fill="#3F3D56"/>
<path d="M138.681 130.367L140.815 131.516L148.075 135.428L159.796 141.742L166.627 129.072C167.27 127.881 167.672 126.575 167.81 125.229C167.948 123.883 167.819 122.523 167.431 121.227C167.042 119.93 166.402 118.723 165.547 117.675C164.691 116.626 163.637 115.757 162.445 115.116C159.898 113.74 156.98 113.209 154.111 113.598C151.242 113.987 148.571 115.277 146.482 117.281L146.478 117.285C145.451 118.272 144.583 119.413 143.908 120.667L138.681 130.367Z" fill="#2F2E41"/>
<path d="M170.672 259.589L169.24 275.338L163.87 276.054L160.29 258.157L170.672 259.589Z" fill="#FFB8B8"/>
<path d="M162.438 276.054C162.438 276.054 169.24 272.474 170.672 275.338C170.672 275.338 169.598 283.928 173.894 285.002C178.19 286.076 179.98 293.593 173.894 294.308C167.808 295.024 163.87 292.877 161.722 292.877C159.574 292.877 161.722 285.36 161.722 285.36L162.438 276.054Z" fill="#2F2E41"/>
<path d="M127.354 259.589L128.786 275.338L134.156 276.054L137.736 258.157L127.354 259.589Z" fill="#FFB8B8"/>
<path d="M135.588 276.054C135.588 276.054 128.786 272.474 127.354 275.338C127.354 275.338 128.428 283.928 124.132 285.002C119.836 286.076 118.046 293.593 124.132 294.308C130.218 295.024 134.156 292.877 136.304 292.877C138.452 292.877 136.304 285.36 136.304 285.36L135.588 276.054Z" fill="#2F2E41"/>
<path d="M156.71 133.238C161.851 133.238 166.018 129.071 166.018 123.932C166.018 118.792 161.851 114.625 156.71 114.625C151.569 114.625 147.402 118.792 147.402 123.932C147.402 129.071 151.569 133.238 156.71 133.238Z" fill="#FFB8B8"/>
<path d="M126.996 142.186L134.514 153.998L143.464 153.282L158.142 154.356C158.142 154.356 159.528 151.586 160.659 148.89C161.278 147.544 161.755 146.137 162.08 144.692C162.438 142.186 157.426 139.681 157.426 139.681C157.426 139.681 157.229 139.645 156.9 139.566C156.463 139.462 155.79 139.291 155.052 139.04C153.388 138.475 151.387 137.515 150.982 136.101C150.266 133.596 155.636 130.017 155.636 130.017L149.192 123.932C149.192 123.932 143.468 131.881 136.515 133.693C136.112 133.799 135.703 133.883 135.291 133.943C135.269 133.947 135.252 133.95 135.23 133.954C127.712 135.028 126.996 142.186 126.996 142.186Z" fill="#FFB8B8"/>
<path d="M130.934 138.965L126.996 142.186C126.996 142.186 123.774 157.577 124.848 161.873C125.922 166.168 124.49 170.105 124.49 170.821C124.49 171.537 121.268 198.382 121.268 198.382C121.268 198.382 114.824 212.699 121.626 211.268C128.428 209.836 125.922 195.518 125.922 195.518L134.156 170.463V149.345L130.934 138.965Z" fill="#FFB8B8"/>
<path d="M159.216 141.828L162.08 143.976L163.512 174.042L174.252 199.814C174.252 199.814 182.128 212.341 177.116 212.699C172.104 213.057 168.882 199.814 168.882 199.814L159.216 175.116L157.784 151.135L159.216 141.828Z" fill="#FFB8B8"/>
<path d="M141.316 143.976C141.316 143.976 148.476 148.987 159.932 147.197C159.932 147.197 163.154 153.64 161.364 157.22C159.574 160.799 163.512 169.389 164.228 170.463C164.944 171.537 173.178 193.729 176.042 217.71C178.906 241.692 186.782 258.157 179.98 260.305C173.178 262.452 159.216 264.958 157.784 262.81C156.352 260.663 154.204 207.33 154.204 207.33L150.266 227.733C150.266 227.733 155.636 262.452 151.698 263.168C147.76 263.884 123.058 261.736 123.774 257.441C124.49 253.146 131.65 230.596 131.65 230.596C131.65 230.596 131.292 185.496 138.452 176.906C138.452 176.906 141.316 172.253 137.378 166.168C133.44 160.083 133.798 150.419 133.798 150.419C133.798 150.419 136.662 150.419 141.316 143.976Z" fill="#2F2E41"/>
<path d="M135.291 133.943L141.316 147.197L142.748 146.482L136.515 133.692L135.291 133.943Z" fill="#2F2E41"/>
<path d="M155.052 139.04L159.574 148.987L160.659 148.89L160.29 147.197L156.9 139.566C156.463 139.462 155.79 139.291 155.052 139.04Z" fill="#2F2E41"/>
<path d="M140.815 131.516C141.159 132.624 141.823 133.605 142.722 134.337C143.621 135.069 144.717 135.519 145.871 135.631C147.026 135.744 148.187 135.513 149.211 134.968C150.235 134.423 151.075 133.589 151.626 132.569C147.098 126.648 150.982 122.929 158.339 120.116C158.893 119.088 159.129 117.918 159.016 116.755C158.903 115.593 158.447 114.49 157.705 113.587C155.677 113.328 153.617 113.525 151.676 114.164C149.734 114.803 147.959 115.868 146.482 117.281L146.478 117.285L141.252 126.978C140.879 127.667 140.649 128.423 140.574 129.203C140.499 129.982 140.581 130.769 140.815 131.516V131.516Z" fill="#2F2E41"/>
<path d="M151.161 127.153C151.853 127.153 152.414 126.191 152.414 125.005C152.414 123.819 151.853 122.858 151.161 122.858C150.469 122.858 149.908 123.819 149.908 125.005C149.908 126.191 150.469 127.153 151.161 127.153Z" fill="#FFB8B8"/>
<path d="M154.895 121.501L165.656 126.376L167.629 122.024C167.289 120.433 166.578 118.945 165.553 117.682L158.146 114.328L154.895 121.501Z" fill="#2F2E41"/>
<path d="M180.762 217.545C183.403 217.545 185.544 215.404 185.544 212.763C185.544 210.123 183.403 207.982 180.762 207.982C178.121 207.982 175.98 210.123 175.98 212.763C175.98 215.404 178.121 217.545 180.762 217.545Z" fill="#4464AD"/>
<path d="M27.237 245.967C28.963 245.967 30.3622 244.568 30.3622 242.843C30.3622 241.117 28.963 239.718 27.237 239.718C25.5109 239.718 24.1117 241.117 24.1117 242.843C24.1117 244.568 25.5109 245.967 27.237 245.967Z" fill="#FF6584"/>
<path d="M43.0267 259.128H42.0703V294.705H43.0267V259.128Z" fill="#3F3D56"/>
<path d="M42.5486 264.159C45.3277 264.159 47.5806 261.906 47.5806 259.128C47.5806 256.349 45.3277 254.097 42.5486 254.097C39.7694 254.097 37.5165 256.349 37.5165 259.128C37.5165 261.906 39.7694 264.159 42.5486 264.159Z" fill="#3F3D56"/>
<path d="M42.5486 281.055C42.5486 281.055 41.8297 265.596 27.0929 267.393Z" fill="#3F3D56"/>
</svg>
